<?xml version="1.0" standalone="no"?><!DOCTYPE svg PUBLIC "-//W3C//DTD SVG 1.1//EN" "http://www.w3.org/Graphics/SVG/1.1/DTD/svg11.dtd"><svg t="1774613479216" class="icon" viewBox="0 0 1056 1024" version="1.1" xmlns="http://www.w3.org/2000/svg" p-id="9725" data-darkreader-inline-fill="" xmlns:xlink="http://www.w3.org/1999/xlink" width="206.25" height="200"><path d="M1056.511846 546.420686m-6.157547 0l-110.835838 0q-6.157547 0-6.157547-6.157547l0 0q0-6.157547 6.157547-6.157547l110.835838 0q6.157547 0 6.157547 6.157547l0 0q0 6.157547-6.157547 6.157547Z" fill="#847D7B" p-id="9726" data-darkreader-inline-fill="" style="--darkreader-inline-fill: var(--darkreader-text-847d7b, #d0bd9e);"></path><path d="M1031.88166 594.5727m-5.172339 0l-63.545881 0q-5.172339 0-5.17234-5.172339l0-1.970415q0-5.172339 5.17234-5.172339l63.545881 0q5.172339 0 5.172339 5.172339l0 1.970415q0 5.172339-5.172339 5.172339Z" fill="#847D7B" p-id="9727" data-darkreader-inline-fill="" style="--darkreader-inline-fill: var(--darkreader-text-847d7b, #d0bd9e);"></path><path d="M178.568851 66.0089h147.781119v61.575466h-147.781119z m135.466026 12.315093h-123.150932v36.945279h123.150932zM517.233915 88.54552H326.34997v12.315093H517.233915a6.157547 6.157547 0 0 0 6.157546-6.157546 6.157547 6.157547 0 0 0-6.157546-6.157547zM178.568851 88.54552H0v512.061576a6.157547 6.157547 0 0 0 12.315093 0V100.860613h166.253758zM695.802766 940.380517h147.781119v61.575466h-147.781119z m135.466025 12.315093h-123.150932v36.94528h123.150932zM523.391461 826.342754v-197.041491c0-5.29549-2.832471-9.605773-6.157546-9.605773s-6.157547 4.310283-6.157547 9.605773v337.679855c0 3.448226 1.847264 6.280698 4.063981 6.280698h4.187131c2.216717 0 4.063981-2.832471 4.063981-6.280698V826.342754z" fill="#847D7B" p-id="9728" data-darkreader-inline-fill="" style="--darkreader-inline-fill: var(--darkreader-background-847d7b, #8c887a);"></path><path d="M554.179194 605.409982a29.802526 29.802526 0 0 0-7.881659-20.443055 30.41828 30.41828 0 0 0 0-40.886109 29.802526 29.802526 0 0 0 7.881659-20.566206 24.630186 24.630186 0 0 0-21.551413-26.600601H511.076368v12.315093h21.428262c4.926037 0 9.23632 6.773301 9.23632 14.285508s-4.310283 14.408659-9.23632 14.408659H517.233915a6.157547 6.157547 0 0 0-6.157547 6.157547 6.034396 6.034396 0 0 0 6.157547 6.034395h15.270715c4.926037 0 9.23632 6.773301 9.23632 14.40866S537.430667 578.809381 532.50463 578.809381H517.233915a6.157547 6.157547 0 0 0-6.157547 6.157546 6.157547 6.157547 0 0 0 6.157547 6.157547h15.270715c4.926037 0 9.23632 6.65015 9.23632 14.285508s-4.310283 14.285508-9.23632 14.285508H511.076368v12.315093h21.428262A24.630186 24.630186 0 0 0 554.179194 605.409982zM227.829224 967.22742H12.315093V589.27721a6.157547 6.157547 0 0 0-6.157546-6.157547 6.157547 6.157547 0 0 0-6.157547 6.157547v390.265304h227.829224zM277.089597 967.22742h418.713169v12.315094h-418.713169zM220.193867 36.94528h9.113168V8.127962H221.671678V3.94083a25.369092 25.369092 0 0 0 9.113169-3.201924h4.926037V36.94528h8.127961v5.418641h-23.644978zM245.562959 21.428262C245.562959 7.019603 250.735298 0 258.616957 0s13.423452 7.019603 13.423452 21.428262S267.114372 43.102826 258.616957 43.102826s-13.053999-7.265905-13.053998-21.674564z m20.566205 0c0-12.315093-2.955622-16.255923-7.142754-16.255923s-7.265905 4.310283-7.265905 16.255923 2.955622 16.502225 7.265905 16.502225 7.142754-4.433434 7.142754-16.502225zM725.112688 911.316897h9.113169v-28.817318H726.590499v-4.187132a25.369092 25.369092 0 0 0 9.113169-3.201924h4.926037V911.316897h8.127962v5.418641h-23.644979zM787.42706 895.79988c0-14.408659 5.172339-21.428262 13.423451-21.428262s13.423452 7.019603 13.423452 21.428262-5.29549 21.674564-13.792905 21.674564-13.053999-7.265905-13.053998-21.674564z m20.566205 0c0-12.315093-2.955622-16.255923-7.142754-16.255923s-7.265905 4.310283-7.265905 16.255923 2.955622 16.502225 7.265905 16.502225 7.142754-4.433434 7.142754-16.502225zM752.575346 895.79988c0-14.408659 5.172339-21.428262 13.423451-21.428262s13.423452 7.019603 13.423452 21.428262-5.29549 21.674564-13.423452 21.674564-13.423452-7.265905-13.423451-21.674564z m20.689356 0c0-12.315093-3.078773-16.255923-7.265905-16.255923s-7.265905 4.310283-7.265905 16.255923 3.078773 16.502225 7.265905 16.502225 7.265905-4.433434 7.265905-16.502225zM589.646663 591.124474h9.113169v-28.817318H591.124474v-4.187132a25.369092 25.369092 0 0 0 9.113169-3.201924h4.926037V591.124474h8.127962v5.418641h-23.644979zM622.651112 554.9181h6.527v16.994828h17.856885v-16.994828h6.526999v41.625015h-6.526999V577.577871h-17.856885v18.965244h-6.527z" fill="#847D7B" p-id="9729" data-darkreader-inline-fill="" style="--darkreader-inline-fill: var(--darkreader-background-847d7b, #8c887a);"></path><path d="M274.010824 1024m0-6.157547l0-94.456764q0-6.157547 6.157546-6.157547l0 0q6.157547 0 6.157547 6.157547l0 94.456764q0 6.157547-6.157547 6.157547l0 0q-6.157547 0-6.157546-6.157547Z" fill="#847D7B" p-id="9730" data-darkreader-inline-fill="" style="--darkreader-inline-fill: var(--darkreader-text-847d7b, #d0bd9e);"></path><path d="M225.735658 1024m0-6.157547l0-94.456764q0-6.157547 6.157547-6.157547l0 0q6.157547 0 6.157547 6.157547l0 94.456764q0 6.157547-6.157547 6.157547l0 0q-6.157547 0-6.157547-6.157547Z" fill="#847D7B" p-id="9731" data-darkreader-inline-fill="" style="--darkreader-inline-fill: var(--darkreader-text-847d7b, #d0bd9e);"></path><path d="M511.076368 497.037162h12.315093V93.964161c0-3.448226-7.265905-1.600962-10.714131-1.600962s-1.600962-1.847264-1.600962 1.600962zM278.567408 890.011786a13.053999 13.053999 0 0 1-10.344678-5.418641l-0.615755 19.088394h-5.29549v-45.812146h6.527v21.797715c2.709321 3.325075 4.679735 4.679735 7.635357 4.679735s5.172339-2.093566 5.17234-7.512207v-18.965243h6.65015v19.8273c-0.123151 8.004811-3.078773 12.315093-9.728924 12.315093zM298.64101 847.278413h24.630187v5.541791h-17.980036v12.315094h15.517017v5.541792h-15.517017v18.103187h-6.650151zM190.021888 885.455201h9.359471v-29.802525h-7.758509v-4.310283a26.723752 26.723752 0 0 0 9.359471-3.201924h5.049188v36.94528h8.374264v5.541792h-24.630187zM219.824414 886.686711l3.201924-4.433434a13.546603 13.546603 0 0 0 9.975225 4.679736 8.374263 8.374263 0 0 0 8.497415-9.23632 7.88166 7.88166 0 0 0-7.512207-9.482622 11.329886 11.329886 0 0 0-6.896452 2.339868l-3.325075-2.093566 1.35466-20.319904H246.301864v5.664943h-16.009621l-0.985208 10.960433a12.315093 12.315093 0 0 1 5.911245-1.477811 12.315093 12.315093 0 0 1 13.053999 13.546602A14.039206 14.039206 0 0 1 233.986771 891.735899a18.842093 18.842093 0 0 1-14.162357-5.049188z" fill="#847D7B" p-id="9732" data-darkreader-inline-fill="" style="--darkreader-inline-fill: var(--darkreader-background-847d7b, #8c887a);"></path><path d="M708.117859 88.54552H517.233915a6.157547 6.157547 0 0 0-6.157547 6.157547 6.280698 6.280698 0 0 0 6.157547 6.157546h190.883944z" fill="#847D7B" p-id="9733" data-darkreader-inline-fill="" style="--darkreader-inline-fill: var(--darkreader-text-847d7b, #d0bd9e);"></path><path d="M696.509773 92.637598m5.332591-3.078773l117.31702-67.733013q5.332592-3.078773 8.411365 2.253819l0 0q3.078773 5.332592-2.253819 8.411365l-117.317019 67.733012q-5.332592 3.078773-8.411365-2.253818l0 0q-3.078773-5.332592 2.253818-8.411365Z" p-id="9734"></path><path d="M985.207456 546.297535h12.315094V88.54552H818.953698v12.315093H985.207456v445.436922zM985.207456 583.242814v383.984606H843.583885v12.315094H997.52255V583.242814h-12.315094z" fill="#847D7B" p-id="9735" data-darkreader-inline-fill="" style="--darkreader-inline-fill: var(--darkreader-background-847d7b, #8c887a);"></path></svg>