<?xml version="1.0" standalone="no"?><!DOCTYPE svg PUBLIC "-//W3C//DTD SVG 1.1//EN" "http://www.w3.org/Graphics/SVG/1.1/DTD/svg11.dtd"><svg t="1774613397377" class="icon" viewBox="0 0 1024 1024" version="1.1" xmlns="http://www.w3.org/2000/svg" p-id="2576" data-darkreader-inline-fill="" xmlns:xlink="http://www.w3.org/1999/xlink" width="200" height="200"><path d="M802.781867 157.661867l-58.88 176.64-37.410134-37.444267-51.336533 51.268267 144.896 0.034133a34.133333 34.133333 0 0 1 34.133333 34.133333v99.293867l184.0128 0.034133v60.757334l-184.0128-0.034134V641.706667a34.133333 34.133333 0 0 1-34.133333 34.133333l-472.507733-0.034133-122.197334 122.2656-43.008-42.973867L241.664 675.84l-17.681067 0.034133a34.133333 34.133333 0 0 1-34.133333-34.133333l-0.034133-99.362133-183.978667 0.034133v-60.757333l183.978667-0.034134V382.293333a34.133333 34.133333 0 0 1 34.133333-34.133333l345.361067-0.034133 94.276266-94.208-37.410133-37.376 176.64-58.88z m-294.263467 251.221333l-257.979733 0.034133v206.1312l51.882666-0.034133 206.097067-206.1312z m264.9088 0.034133l-179.029333-0.034133-206.097067 206.1312 385.1264 0.034133V408.917333z" fill="#ffffff" p-id="2577" data-darkreader-inline-fill="" style="--darkreader-inline-fill: var(--darkreader-background-ffffff, #23221f);"></path></svg>