<?xml version="1.0" standalone="no"?><!DOCTYPE svg PUBLIC "-//W3C//DTD SVG 1.1//EN" "http://www.w3.org/Graphics/SVG/1.1/DTD/svg11.dtd"><svg t="1774613485263" class="icon" viewBox="0 0 1099 1024" version="1.1" xmlns="http://www.w3.org/2000/svg" p-id="9891" data-darkreader-inline-fill="" xmlns:xlink="http://www.w3.org/1999/xlink" width="214.6484375" height="200"><path d="M6.848512 444.279467h122.88a6.826667 6.826667 0 0 1 6.826667 6.826666 6.826667 6.826667 0 0 1-6.826667 6.826667h-122.88A6.826667 6.826667 0 0 1 0.021845 450.56a6.826667 6.826667 0 0 1 6.826667-6.826667M33.062912 497.800533h70.4512a5.597867 5.597867 0 0 1 5.7344 5.597867V505.173333a5.7344 5.7344 0 0 1-5.7344 5.7344H33.062912A5.7344 5.7344 0 0 1 27.328512 505.173333v-2.321066a5.597867 5.597867 0 0 1 5.7344-5.597867M197.995179 955.733333h163.84v68.266667h-163.84z m150.186666 13.653334h-136.533333v40.96h136.533333zM716.821845 955.733333h163.84v68.266667h-163.84z m150.186667 13.653334h-136.533333v40.96h136.533333zM230.490112 909.858133h10.103467v-32.085333H232.128512V873.813333a28.125867 28.125867 0 0 0 10.103467-3.549866h5.461333v40.1408h9.0112v6.007466h-26.2144zM299.575979 892.654933c0-15.9744 5.7344-23.7568 14.882133-23.7568s14.882133 7.7824 14.882133 23.7568-5.870933 24.029867-14.882133 24.029867-14.882133-8.055467-14.882133-24.029867m22.801066 0c0-13.653333-3.2768-18.158933-7.918933-18.158933s-8.055467 4.9152-8.055467 18.158933 3.2768 18.295467 8.055467 18.295467 7.918933-5.051733 7.918933-18.295467M264.077312 892.654933c0-15.9744 5.870933-23.7568 15.018667-23.7568s14.882133 7.7824 14.882133 23.7568-5.870933 24.029867-14.882133 24.029867-15.018667-8.055467-15.018667-24.029867m22.9376 0c0-13.653333-3.2768-18.158933-7.918933-18.158933s-8.055467 4.9152-8.055467 18.158933 3.2768 18.295467 8.055467 18.295467 7.918933-5.051733 7.918933-18.295467M749.316779 923.511467h10.103466v-32.085334H750.955179V887.466667a28.125867 28.125867 0 0 0 10.103466-3.549867h5.461334v40.1408h9.0112v6.007467h-26.2144zM818.402645 906.308267c0-15.9744 5.7344-23.7568 14.882134-23.7568s14.882133 7.7824 14.882133 23.7568-5.870933 24.029867-14.882133 24.029866-14.882133-8.055467-14.882134-24.029866m22.801067 0c0-13.653333-3.2768-18.158933-7.918933-18.158934s-8.055467 4.9152-8.055467 18.158934 3.2768 18.295467 8.055467 18.295466 7.918933-5.051733 7.918933-18.295466M782.903979 906.308267c0-15.9744 5.870933-23.7568 15.018666-23.7568s14.882133 7.7824 14.882134 23.7568-5.870933 24.029867-14.882134 24.029866-15.018667-8.055467-15.018666-24.029866m22.9376 0c0-13.653333-3.2768-18.158933-7.918934-18.158934s-8.055467 4.9152-8.055466 18.158934 3.2768 18.295467 8.055466 18.295466 7.918933-5.051733 7.918934-18.295466" fill="#847D7B" p-id="9892" data-darkreader-inline-fill="" style="--darkreader-inline-fill: var(--darkreader-background-847d7b, #8c887a);"></path><path d="M205.231445 996.693333H61.461845V504.6272h13.653334V983.04h130.116266v13.653333zM355.827712 983.04H723.648512v13.653333H355.827712zM1099.115179 996.693333H875.473579v-13.653333H1085.461845V13.653333h-464.213333V0h477.866667v996.693333zM75.115179 451.106133h-13.653334V0h382.293334v13.653333h-368.64v437.4528zM590.528512 750.933333h163.84v68.266667h-163.84z m150.186667 13.653334h-136.533334v40.96h136.533334z" fill="#847D7B" p-id="9893" data-darkreader-inline-fill="" style="--darkreader-inline-fill: var(--darkreader-background-847d7b, #8c887a);"></path><path d="M532.501845 788.48h13.653334V989.866667h-13.653334zM525.675179 269.653333h13.653333v87.2448h-13.653333z" fill="#847D7B" p-id="9894" data-darkreader-inline-fill="" style="--darkreader-inline-fill: var(--darkreader-background-847d7b, #8c887a);"></path><path d="M596.672512 792.439467H320.875179v-191.146667h13.653333v177.493333h262.144v13.653334zM798.741845 792.439467h-50.244266v-13.653334h36.590933v-177.493333h13.653333v191.146667zM798.741845 546.679467h-13.653333v-177.493334h-450.56v177.493334h-13.653333v-191.146667h477.866666v191.146667z" fill="#847D7B" p-id="9895" data-darkreader-inline-fill="" style="--darkreader-inline-fill: var(--darkreader-background-847d7b, #8c887a);"></path><path d="M382.315179 553.506133h-109.226667a6.826667 6.826667 0 0 1-6.826667-6.826666 6.826667 6.826667 0 0 1 6.826667-6.826667h109.226667a6.826667 6.826667 0 0 1 6.826666 6.826667 6.826667 6.826667 0 0 1-6.826666 6.826666M382.315179 608.119467h-109.226667a6.826667 6.826667 0 0 1-6.826667-6.826667 6.826667 6.826667 0 0 1 6.826667-6.826667h109.226667a6.826667 6.826667 0 0 1 6.826666 6.826667 6.826667 6.826667 0 0 1-6.826666 6.826667M846.528512 553.506133h-109.226667a6.826667 6.826667 0 0 1-6.826666-6.826666 6.826667 6.826667 0 0 1 6.826666-6.826667h109.226667a6.826667 6.826667 0 0 1 6.826667 6.826667 6.826667 6.826667 0 0 1-6.826667 6.826666M846.528512 608.119467h-109.226667a6.826667 6.826667 0 0 1-6.826666-6.826667 6.826667 6.826667 0 0 1 6.826666-6.826667h109.226667a6.826667 6.826667 0 0 1 6.826667 6.826667 6.826667 6.826667 0 0 1-6.826667 6.826667M404.570112 588.458667h10.103467v-32.085334h-8.328534v-4.5056a29.0816 29.0816 0 0 0 10.103467-3.549866h5.461333v40.1408h9.0112v6.007466h-26.350933zM473.519445 571.255467c0-15.9744 5.870933-23.7568 15.018667-23.7568s14.882133 7.7824 14.882133 23.7568-5.870933 24.029867-14.882133 24.029866-15.018667-8.055467-15.018667-24.029866m22.9376 0c0-13.653333-3.2768-18.158933-7.918933-18.158934s-8.055467 4.9152-8.055467 18.158934 3.2768 18.295467 8.055467 18.295466 7.918933-5.051733 7.918933-18.295466M438.157312 571.255467c0-15.9744 5.870933-23.7568 15.018667-23.7568s14.882133 7.7824 14.882133 23.7568-5.870933 24.029867-14.882133 24.029866-15.018667-8.055467-15.018667-24.029866m22.9376 0c0-13.653333-3.2768-18.158933-7.918933-18.158934s-8.055467 4.9152-8.055467 18.158934 3.2768 18.295467 8.055467 18.295466 7.918933-5.051733 7.918933-18.295466M543.834112 590.2336a14.609067 14.609067 0 0 1-11.4688-6.144v21.162667h-6.690133v-50.653867h6.826666v24.1664a10.24 10.24 0 0 0 8.328534 5.188267c4.232533 0 5.870933-2.321067 5.870933-8.328534v-21.026133h7.3728v21.845333c0 8.874667-3.2768 13.653333-10.6496 13.653334M566.089045 542.72h27.579734v6.144H573.461845v14.336h17.2032v6.144H573.461845v20.0704h-7.3728v-46.6944zM873.835179 596.7872c13.653333-12.151467 20.753067-21.2992 20.753066-28.945067a7.645867 7.645867 0 0 0-7.918933-8.6016 12.6976 12.6976 0 0 0-9.147733 5.3248l-4.096-4.096a18.0224 18.0224 0 0 1 13.653333-6.9632 13.653333 13.653333 0 0 1 13.653333 13.653334 43.8272 43.8272 0 0 1-17.066666 27.306666 73.728 73.728 0 0 1 7.645866 0h11.605334V600.746667H873.835179zM909.470379 577.536c0-16.247467 5.870933-24.029867 15.1552-24.029867s15.018667 7.918933 15.018666 24.029867-6.007467 24.302933-15.018666 24.302933-15.1552-8.055467-15.1552-24.302933m23.210666 0c0-13.653333-3.413333-18.295467-8.055466-18.295467s-8.192 4.9152-8.192 18.295467 3.413333 18.568533 8.192 18.568533 8.055467-5.051733 8.055466-18.568533M945.651712 577.536c0-16.247467 5.870933-24.029867 15.018667-24.029867s15.1552 7.918933 15.1552 24.029867-6.007467 24.302933-15.1552 24.302933-15.018667-8.055467-15.018667-24.302933m23.210667 0c0-13.653333-3.413333-18.295467-8.192-18.295467s-8.055467 4.9152-8.055467 18.295467 3.2768 18.568533 8.055467 18.568533 8.192-5.051733 8.192-18.568533M1014.054912 596.514133a14.882133 14.882133 0 0 1-11.4688-6.007466v21.026133h-6.007467v-50.653867h7.3728v24.1664c2.8672 3.6864 5.051733 5.188267 8.328534 5.188267s5.870933-2.321067 5.870933-8.328533v-21.026134h7.236267v21.845334c0 8.874667-3.2768 13.653333-10.6496 13.653333M1036.309845 549.000533h27.716267v6.144h-20.343467v14.336h17.2032v6.144h-17.2032v20.0704h-7.3728v-46.6944zM612.373845 726.6304h10.103467v-32.085333H614.421845v-4.5056a28.125867 28.125867 0 0 0 10.103467-3.549867h5.461333v40.1408h9.0112v6.007467h-26.624zM645.687979 709.973333c0-15.9744 5.870933-23.620267 14.882133-23.620266s14.882133 7.7824 14.882133 23.620266-5.870933 24.1664-14.882133 24.1664-14.882133-8.055467-14.882133-24.1664M669.035179 709.973333c0-13.653333-3.2768-18.0224-8.055467-18.0224s-8.055467 4.9152-8.055467 18.0224 3.413333 18.432 8.055467 18.432 8.055467-5.7344 8.055467-18.432M683.917312 698.094933h5.870933v4.9152a15.1552 15.1552 0 0 1 10.6496-5.7344 9.147733 9.147733 0 0 1 9.557334 6.280534 16.247467 16.247467 0 0 1 11.195733-6.280534c7.236267 0 10.6496 4.9152 10.6496 13.653334v21.7088h-7.236267v-20.8896c0-5.870933-1.911467-8.328533-5.7344-8.328534a11.4688 11.4688 0 0 0-7.7824 4.778667v24.439467h-6.5536v-20.8896c0-5.870933-1.774933-8.328533-5.7344-8.328534a11.741867 11.741867 0 0 0-7.7824 4.778667v24.439467h-7.099733z" fill="#847D7B" p-id="9896" data-darkreader-inline-fill="" style="--darkreader-inline-fill: var(--darkreader-background-847d7b, #8c887a);"></path><path d="M443.755179 122.88a6.826667 6.826667 0 0 1-6.826667-6.826667v-109.226666a6.826667 6.826667 0 0 1 13.653333 0v109.226666a6.826667 6.826667 0 0 1-6.826666 6.826667" fill="#FF0000" p-id="9897" data-darkreader-inline-fill="" style="--darkreader-inline-fill: var(--darkreader-text-ff0000, #e45244);"></path><path d="M532.501845 276.616533a6.826667 6.826667 0 0 1-5.870933-3.413333l-88.746667-153.736533a6.826667 6.826667 0 1 1 11.741867-6.826667l88.746667 153.736533a6.690133 6.690133 0 0 1-2.4576 9.284267 6.417067 6.417067 0 0 1-3.413334 0.955733" p-id="9898"></path><path d="M621.248512 122.88a6.826667 6.826667 0 0 1-6.826667-6.826667v-109.226666a6.826667 6.826667 0 0 1 13.653334 0v109.226666a6.826667 6.826667 0 0 1-6.826667 6.826667" fill="#FF0000" p-id="9899" data-darkreader-inline-fill="" style="--darkreader-inline-fill: var(--darkreader-text-ff0000, #e45244);"></path></svg>