<?xml version="1.0" standalone="no"?><!DOCTYPE svg PUBLIC "-//W3C//DTD SVG 1.1//EN" "http://www.w3.org/Graphics/SVG/1.1/DTD/svg11.dtd"><svg t="1774613505038" class="icon" viewBox="0 0 1024 1024" version="1.1" xmlns="http://www.w3.org/2000/svg" p-id="12898" data-darkreader-inline-fill="" xmlns:xlink="http://www.w3.org/1999/xlink" width="200" height="200"><path d="M1023.977999 512.605797c-134.010133 0-268.014126 0-407.875524 0 0 47.045479 0 90.494037 0 137.954979-24.753777 0-43.741223 0-65.568345 0 0-92.562139 0-183.395914 0-277.138948 20.50808 0 42.286082 0 65.730027 0 0 38.670741-0.066515 77.487815-0.066515 124.96206 140.895961 0 272.376481 0 407.780357 0C1023.977999 503.119749 1023.977999 507.869936 1023.977999 512.605797z" p-id="12899"></path><path d="M0.377088 498.383888c137.933489 0 275.858792 0 422.23251 0 0-92.617397 0-181.39535 0-270.166139 8.278547 0 16.563234 0 24.839735 0 0 194.331987 0 388.657834 0 582.989821-8.277524 0-16.562211 0-24.839735 0 0-96.479355 0-192.945407 0-298.602795-143.347802 0-282.790668 0-422.23251 0C0.377088 507.869936 0.377088 503.119749 0.377088 498.383888z" p-id="12900"></path></svg>